<svg id="Layer_1" enable-background="new 0 0 256 256" height="512" viewBox="0 0 256 256" width="512" xmlns="http://www.w3.org/2000/svg"><g><g><g><path d="m184.058 11.94h-159.582c-4.541 0-8.225 3.684-8.225 8.225v113.293h-8.034c-2.276 0-4.118 1.842-4.118 4.107v8.478c0 6.817 5.525 12.342 12.342 12.342h139.205v-64.727c0-5.536 4.488-10.024 10.024-10.024h26.611v-63.469c.002-4.541-3.682-8.225-8.223-8.225z" fill="#afafaf"/></g></g><g><path d="m79.09 133.454v7.93c0 2.272 1.842 4.114 4.114 4.114h42.129c2.272 0 4.114-1.842 4.114-4.114v-7.93z" fill="#7a7380"/></g><g><path d="m65.769 152.441h-5c-1.381 0-2.5-1.119-2.5-2.5s1.119-2.5 2.5-2.5h5c1.381 0 2.5 1.119 2.5 2.5s-1.119 2.5-2.5 2.5zm-15 0h-33.295c-3.588 0-6.508-2.919-6.508-6.508v-4.253c0-1.381 1.119-2.5 2.5-2.5s2.5 1.119 2.5 2.5v4.253c0 .831.676 1.508 1.508 1.508h33.295c1.381 0 2.5 1.119 2.5 2.5s-1.119 2.5-2.5 2.5z" fill="#efefef"/></g><g><path d="m180.11 24.124v59.51h-14.438c-5.536 0-10.024 4.488-10.024 10.024v27.617h-127.213v-97.151z" fill="#f0c020"/></g><g><path d="m155.647 105.024h96.253v117.644h-96.253z" fill="#f0c020"/></g><g><path d="m251.9 93.659v11.365h-96.253v-11.365c0-5.535 4.491-10.026 10.026-10.026h76.202c5.534 0 10.025 4.491 10.025 10.026z" fill="#7a7380"/></g><g><path d="m155.647 222.669h96.253v11.365c0 5.535-4.491 10.026-10.026 10.026h-76.202c-5.535 0-10.026-4.491-10.026-10.026v-11.365z" fill="#7a7380"/></g><g><path d="m243.5 215h-61.642c-1.381 0-2.5-1.119-2.5-2.5s1.119-2.5 2.5-2.5h59.142v-94.858c0-1.381 1.119-2.5 2.5-2.5s2.5 1.119 2.5 2.5v97.358c0 1.381-1.119 2.5-2.5 2.5zm-71.642 0h-6.236c-1.381 0-2.5-1.119-2.5-2.5s1.119-2.5 2.5-2.5h6.236c1.381 0 2.5 1.119 2.5 2.5s-1.119 2.5-2.5 2.5z" fill="#f9e5af"/></g><g><path d="m187.449 170.348c0 10.261 8.318 18.579 18.579 18.579 10.261 0 18.579-8.318 18.579-18.579z" fill="#fc5d3d"/></g><g><path d="m37.333 114.861c-1.381 0-2.5-1.119-2.5-2.5v-2c0-1.381 1.119-2.5 2.5-2.5s2.5 1.119 2.5 2.5v2c0 1.381-1.119 2.5-2.5 2.5zm0-12c-1.381 0-2.5-1.119-2.5-2.5v-67.694c0-1.381 1.119-2.5 2.5-2.5h130.781c1.381 0 2.5 1.119 2.5 2.5s-1.119 2.5-2.5 2.5c-13.839 0-114.294 0-128.281 0v65.194c0 1.381-1.119 2.5-2.5 2.5z" fill="#f9e5af"/></g><g><g><path d="m129.801 74.016c0 15.366-12.451 27.818-27.818 27.818-15.366 0-27.818-12.451-27.818-27.818s12.451-27.818 27.818-27.818c6.71 0 12.86 2.373 17.668 6.337l-17.873 23.801-9.021-10.31c-1.937-2.213-5.306-2.435-7.519-.498-2.222 1.938-2.444 5.306-.507 7.519l13.349 15.26c2.24 2.551 6.257 2.4 8.283-.311l20.228-26.955c2.055 3.865 3.21 8.282 3.21 12.975z" fill="#fff"/></g><g><path d="m132.245 44.634c-2.355-1.769-5.697-1.298-7.465 1.066l-5.128 6.835-17.873 23.801-9.021-10.31c-1.937-2.213-5.306-2.435-7.519-.498-2.222 1.938-2.444 5.306-.507 7.519l13.349 15.26c2.24 2.551 6.257 2.4 8.283-.311l20.228-26.955 6.719-8.95c1.769-2.356 1.289-5.697-1.066-7.457z" fill="#13bf6d"/></g><g><path d="m198.314 96.829h10.919c1.381 0 2.5-1.119 2.5-2.5s-1.119-2.5-2.5-2.5h-10.919c-1.381 0-2.5 1.119-2.5 2.5s1.12 2.5 2.5 2.5z"/><path d="m209.233 230.864h-10.919c-1.381 0-2.5 1.119-2.5 2.5s1.119 2.5 2.5 2.5h10.919c1.381 0 2.5-1.119 2.5-2.5s-1.119-2.5-2.5-2.5z"/><circle cx="251.899" cy="165.02" r="2.5"/><path d="m254.4 93.659c0-6.906-5.619-12.525-12.526-12.525h-47.091v-60.969c0-5.913-4.811-10.725-10.725-10.725h-159.582c-5.914 0-10.725 4.812-10.725 10.725v110.793h-5.534c-3.649 0-6.618 2.964-6.618 6.607v8.479c0 8.184 6.658 14.842 14.842 14.842h136.708c0 58.384-.002 71.993-.002 73.148 0 6.906 5.619 12.525 12.525 12.525h76.201c6.907 0 12.526-5.619 12.526-12.525 0-6.929-.001-48.503-.001-59.015 0-1.37-1.119-2.5-2.5-2.5-1.38 0-2.5 1.13-2.5 2.5v45.149h-91.25v-112.644h91.25v47.495c0 1.38 1.12 2.5 2.5 2.5 1.381 0 2.5-1.12 2.5-2.5.001-47.42.002-57.197.002-61.36zm-5 0v8.865c-1.142 0-89.37 0-91.253 0v-8.865c0-4.149 3.376-7.525 7.525-7.525h76.201c4.151 0 7.527 3.376 7.527 7.525zm-224.924-79.219h159.583c3.156 0 5.725 2.568 5.725 5.725v60.969h-7.174v-57.014c0-1.404-1.153-2.5-2.5-2.5h-151.67c-1.396 0-2.51 1.156-2.51 2.5v24.37c0 1.369 1.13 2.5 2.51 2.5 1.37 0 2.5-1.131 2.5-2.5 0-.011 0-.011-.01-.021v-21.849h146.68v54.514h-11.937c-6.906 0-12.525 5.619-12.525 12.525 0 .354.002 25.11.002 25.11h-122.22v-50.279c0-1.381-1.12-2.5-2.49-2.5-1.38 0-2.5 1.119-2.5 2.5l-.01 52.779c0 1.398 1.139 2.5 2.51 2.5h124.709v7.188c-12.077 0-116.802 0-134.398 0v-110.792c0-3.156 2.568-5.725 5.725-5.725zm-8.034 141.446c-5.427 0-9.842-4.415-9.842-9.842v-8.479c0-.887.726-1.607 1.618-1.607h68.373v5.422c0 3.649 2.97 6.62 6.61 6.62h15.61c1.38 0 2.5-1.13 2.5-2.5 0-1.38-1.12-2.5-2.5-2.5h-15.611c-.88-.01-1.61-.73-1.61-1.62v-5.422h45.36v5.422c0 .89-.73 1.61-1.62 1.62h-6.52c-1.38 0-2.5 1.12-2.5 2.5 0 1.37 1.12 2.5 2.5 2.5h6.52c3.65 0 6.61-2.971 6.61-6.62v-5.422h21.21v19.928zm225.432 85.674h-76.201c-4.149 0-7.525-3.376-7.525-7.525v-8.864h91.252v8.864c0 4.149-3.376 7.525-7.526 7.525z"/><path d="m195.609 138.02c0-1.37-1.119-2.5-2.5-2.5h-14.649c-1.38 0-2.5 1.13-2.5 2.5 0 1.38 1.12 2.5 2.5 2.5h14.649c1.381 0 2.5-1.121 2.5-2.5z"/><path d="m231.59 138.02c0-1.37-1.12-2.5-2.5-2.5h-14.65c-1.38 0-2.5 1.13-2.5 2.5 0 1.38 1.12 2.5 2.5 2.5h14.65c1.38 0 2.5-1.121 2.5-2.5z"/><path d="m183.62 152.189c1.38 0 2.5-1.12 2.5-2.5v-2.5c0-1.38-1.12-2.5-2.5-2.5-1.37 0-2.5 1.12-2.5 2.5v2.5c0 1.38 1.13 2.5 2.5 2.5z"/><path d="m222.1 149.689v-2.5c0-1.38-1.12-2.5-2.5-2.5-1.37 0-2.5 1.12-2.5 2.5v2.5c0 1.38 1.13 2.5 2.5 2.5 1.379 0 2.5-1.12 2.5-2.5z"/><path d="m206.03 191.43c11.619-.01 21.069-9.46 21.069-21.08 0-1.45-1.156-2.5-2.49-2.5h-37.159c-1.414 0-2.5 1.145-2.5 2.5 0 11.62 9.46 21.07 21.08 21.08zm15.88-18.58c-1.24 7.851-7.91 13.561-15.88 13.58-7.98-.02-14.65-5.729-15.881-13.58z"/><circle cx="108.81" cy="145.5" r="2.5"/><path d="m28.44 60.99c1.37 0 2.49-1.131 2.49-2.5 0-1.381-1.12-2.5-2.49-2.5-1.38 0-2.51 1.119-2.51 2.5 0 1.369 1.13 2.5 2.51 2.5z"/><path d="m209.879 51.383 6.475 6.475c.977.977 2.559.977 3.535 0 .977-.977.977-2.559 0-3.535l-2.209-2.21h5.831c3.934 0 7.134 3.2 7.134 7.134v8.955c0 1.381 1.119 2.5 2.5 2.5s2.5-1.119 2.5-2.5v-8.955c0-6.69-5.443-12.134-12.134-12.134h-5.83l2.209-2.209c.977-.976.977-2.559 0-3.535s-2.559-.977-3.535 0l-6.475 6.474c-.988.981-.971 2.576-.001 3.54z"/><path d="m139.257 192.842h-8.955c-3.934 0-7.134-3.2-7.134-7.134v-5.831l2.209 2.209c.977.977 2.56.977 3.536 0 .976-.976.976-2.559 0-3.535l-6.477-6.478c-.956-.957-2.541-.997-3.538.002l-6.475 6.475c-.977.977-.977 2.559 0 3.535.976.977 2.56.977 3.535 0l2.21-2.21v5.831c0 6.69 5.443 12.134 12.134 12.134h8.955c1.381 0 2.5-1.119 2.5-2.5s-1.119-2.498-2.5-2.498z"/><path d="m101.983 104.334c16.717 0 30.317-13.601 30.317-30.318 0-4.399-.963-8.755-2.787-12.699l5.797-7.725c2.573-3.426 1.933-8.344-1.569-10.96-3.462-2.596-8.366-1.9-10.961 1.568l-3.627 4.832c-5.025-3.455-11.03-5.333-17.169-5.333-16.717 0-30.317 13.601-30.317 30.317-.001 16.717 13.599 30.318 30.316 30.318zm24.798-57.136c.932-1.246 2.699-1.514 3.962-.564.002.001.004.003.006.004 1.252.936 1.499 2.706.563 3.952l-6.707 8.936c-.004.005-.009.008-.013.013l-20.23 26.96c-1.028 1.376-3.15 1.584-4.399.161l-13.349-15.26c-1.023-1.169-.918-2.952.273-3.991 1.104-.964 2.922-.956 3.99.264l9.021 10.31c1.041 1.188 2.924 1.128 3.88-.146l17.873-23.801c.006-.008.009-.016.015-.024zm-24.798 1.5c5.057 0 10.004 1.526 14.164 4.335l-14.516 19.337-6.992-7.99c-2.84-3.245-7.779-3.59-11.042-.736-3.269 2.852-3.593 7.797-.746 11.05l13.353 15.263c3.231 3.682 9.144 3.577 12.161-.459l17.638-23.503c.855 2.567 1.298 5.284 1.298 8.021 0 13.961-11.357 25.318-25.317 25.318s-25.318-11.357-25.318-25.318c0-13.96 11.357-25.318 25.317-25.318z"/></g></g></g></svg>